<mxfile host="app.diagrams.net" modified="2022-04-02T04:18:31.683Z" agent="5.0 (Windows NT 10.0; WOW64) AppleWebKit/537.36 (KHTML, like Gecko) Chrome/99.0.4844.84 Safari/537.36" etag="TnGSIxC56-nzymf19yJq" version="17.2.2" type="github">
  <diagram id="kgpKYQtTHZ0yAKxKKP6v" name="Page-1">
    <mxGraphModel dx="884" dy="858" grid="1" gridSize="10" guides="1" tooltips="1" connect="1" arrows="1" fold="1" page="1" pageScale="1" pageWidth="1100" pageHeight="850" math="0" shadow="0">
      <root>
        <mxCell id="0" />
        <mxCell id="1" parent="0" />
        <mxCell id="Jinud9rGnBVDsygdzhPH-4" value="" style="edgeStyle=orthogonalEdgeStyle;rounded=0;orthogonalLoop=1;jettySize=auto;html=1;entryX=0;entryY=0.5;entryDx=0;entryDy=0;" edge="1" parent="1">
          <mxGeometry relative="1" as="geometry">
            <mxPoint x="190" y="75" as="sourcePoint" />
            <mxPoint x="330" y="75" as="targetPoint" />
          </mxGeometry>
        </mxCell>
        <mxCell id="Jinud9rGnBVDsygdzhPH-28" style="edgeStyle=orthogonalEdgeStyle;rounded=0;orthogonalLoop=1;jettySize=auto;html=1;entryX=0.047;entryY=0.752;entryDx=0;entryDy=0;entryPerimeter=0;" edge="1" parent="1" source="Jinud9rGnBVDsygdzhPH-1" target="Jinud9rGnBVDsygdzhPH-19">
          <mxGeometry relative="1" as="geometry">
            <mxPoint x="120" y="125" as="sourcePoint" />
            <mxPoint x="330" y="404" as="targetPoint" />
            <Array as="points">
              <mxPoint x="130" y="404" />
            </Array>
          </mxGeometry>
        </mxCell>
        <mxCell id="Jinud9rGnBVDsygdzhPH-1" value="Sumber Data (A)&lt;br&gt;pelanggan" style="rounded=0;whiteSpace=wrap;html=1;" vertex="1" parent="1">
          <mxGeometry x="70" y="55" width="120" height="60" as="geometry" />
        </mxCell>
        <mxCell id="Jinud9rGnBVDsygdzhPH-17" style="edgeStyle=orthogonalEdgeStyle;rounded=0;orthogonalLoop=1;jettySize=auto;html=1;entryX=1;entryY=0.5;entryDx=0;entryDy=0;" edge="1" parent="1">
          <mxGeometry relative="1" as="geometry">
            <mxPoint x="330" y="92" as="sourcePoint" />
            <mxPoint x="190" y="92" as="targetPoint" />
          </mxGeometry>
        </mxCell>
        <mxCell id="Jinud9rGnBVDsygdzhPH-21" style="edgeStyle=orthogonalEdgeStyle;rounded=0;orthogonalLoop=1;jettySize=auto;html=1;entryX=0;entryY=0.5;entryDx=0;entryDy=0;" edge="1" parent="1" source="Jinud9rGnBVDsygdzhPH-2" target="Jinud9rGnBVDsygdzhPH-20">
          <mxGeometry relative="1" as="geometry" />
        </mxCell>
        <mxCell id="Jinud9rGnBVDsygdzhPH-23" style="edgeStyle=orthogonalEdgeStyle;rounded=0;orthogonalLoop=1;jettySize=auto;html=1;entryX=0.5;entryY=0;entryDx=0;entryDy=0;" edge="1" parent="1">
          <mxGeometry relative="1" as="geometry">
            <mxPoint x="379" y="125" as="sourcePoint" />
            <mxPoint x="379" y="209" as="targetPoint" />
          </mxGeometry>
        </mxCell>
        <mxCell id="Jinud9rGnBVDsygdzhPH-2" value="Proses (D)" style="ellipse;whiteSpace=wrap;html=1;aspect=fixed;" vertex="1" parent="1">
          <mxGeometry x="330" y="45" width="80" height="80" as="geometry" />
        </mxCell>
        <mxCell id="Jinud9rGnBVDsygdzhPH-6" value="Arus Data (B)" style="text;html=1;align=center;verticalAlign=middle;resizable=0;points=[];autosize=1;strokeColor=none;fillColor=none;" vertex="1" parent="1">
          <mxGeometry x="217" y="53" width="90" height="20" as="geometry" />
        </mxCell>
        <mxCell id="Jinud9rGnBVDsygdzhPH-24" style="edgeStyle=orthogonalEdgeStyle;rounded=0;orthogonalLoop=1;jettySize=auto;html=1;entryX=0.5;entryY=1;entryDx=0;entryDy=0;" edge="1" parent="1">
          <mxGeometry relative="1" as="geometry">
            <mxPoint x="360" y="209" as="sourcePoint" />
            <mxPoint x="360" y="125" as="targetPoint" />
          </mxGeometry>
        </mxCell>
        <mxCell id="Jinud9rGnBVDsygdzhPH-25" value="" style="edgeStyle=orthogonalEdgeStyle;rounded=0;orthogonalLoop=1;jettySize=auto;html=1;" edge="1" parent="1" source="Jinud9rGnBVDsygdzhPH-7" target="Jinud9rGnBVDsygdzhPH-19">
          <mxGeometry relative="1" as="geometry" />
        </mxCell>
        <mxCell id="Jinud9rGnBVDsygdzhPH-7" value="Penyimpanan&amp;nbsp; Data (E)" style="shape=partialRectangle;whiteSpace=wrap;html=1;left=0;right=0;fillColor=none;" vertex="1" parent="1">
          <mxGeometry x="310" y="209" width="120" height="60" as="geometry" />
        </mxCell>
        <mxCell id="Jinud9rGnBVDsygdzhPH-18" value="Arus Data (C)" style="text;html=1;align=center;verticalAlign=middle;resizable=0;points=[];autosize=1;strokeColor=none;fillColor=none;" vertex="1" parent="1">
          <mxGeometry x="216" y="94" width="90" height="20" as="geometry" />
        </mxCell>
        <mxCell id="Jinud9rGnBVDsygdzhPH-26" style="edgeStyle=orthogonalEdgeStyle;rounded=0;orthogonalLoop=1;jettySize=auto;html=1;entryX=0.5;entryY=1;entryDx=0;entryDy=0;" edge="1" parent="1">
          <mxGeometry relative="1" as="geometry">
            <mxPoint x="356.00005555559403" y="383.0666666666666" as="sourcePoint" />
            <mxPoint x="156" y="114" as="targetPoint" />
          </mxGeometry>
        </mxCell>
        <mxCell id="Jinud9rGnBVDsygdzhPH-30" style="edgeStyle=orthogonalEdgeStyle;rounded=0;orthogonalLoop=1;jettySize=auto;html=1;entryX=0.25;entryY=1;entryDx=0;entryDy=0;" edge="1" parent="1" source="Jinud9rGnBVDsygdzhPH-19" target="Jinud9rGnBVDsygdzhPH-20">
          <mxGeometry relative="1" as="geometry" />
        </mxCell>
        <mxCell id="Jinud9rGnBVDsygdzhPH-37" style="edgeStyle=orthogonalEdgeStyle;rounded=0;orthogonalLoop=1;jettySize=auto;html=1;" edge="1" parent="1" target="Jinud9rGnBVDsygdzhPH-35">
          <mxGeometry relative="1" as="geometry">
            <mxPoint x="378.0000000000001" y="524" as="targetPoint" />
            <mxPoint x="378.0000000000001" y="424" as="sourcePoint" />
            <Array as="points">
              <mxPoint x="378" y="494" />
              <mxPoint x="378" y="494" />
            </Array>
          </mxGeometry>
        </mxCell>
        <mxCell id="Jinud9rGnBVDsygdzhPH-19" value="Proses (H)" style="ellipse;whiteSpace=wrap;html=1;aspect=fixed;" vertex="1" parent="1">
          <mxGeometry x="330" y="344" width="80" height="80" as="geometry" />
        </mxCell>
        <mxCell id="Jinud9rGnBVDsygdzhPH-31" style="edgeStyle=orthogonalEdgeStyle;rounded=0;orthogonalLoop=1;jettySize=auto;html=1;entryX=0.941;entryY=0.75;entryDx=0;entryDy=0;entryPerimeter=0;" edge="1" parent="1" source="Jinud9rGnBVDsygdzhPH-20" target="Jinud9rGnBVDsygdzhPH-19">
          <mxGeometry relative="1" as="geometry">
            <Array as="points">
              <mxPoint x="610" y="404" />
            </Array>
          </mxGeometry>
        </mxCell>
        <mxCell id="Jinud9rGnBVDsygdzhPH-20" value="Sumber Data (G)&lt;br&gt;administrasi" style="rounded=0;whiteSpace=wrap;html=1;" vertex="1" parent="1">
          <mxGeometry x="550" y="55" width="120" height="60" as="geometry" />
        </mxCell>
        <mxCell id="Jinud9rGnBVDsygdzhPH-22" value="Arus Data (F)" style="text;html=1;align=center;verticalAlign=middle;resizable=0;points=[];autosize=1;strokeColor=none;fillColor=none;" vertex="1" parent="1">
          <mxGeometry x="425" y="64" width="90" height="20" as="geometry" />
        </mxCell>
        <mxCell id="Jinud9rGnBVDsygdzhPH-27" value="Arus Data (I)" style="text;html=1;align=center;verticalAlign=middle;resizable=0;points=[];autosize=1;strokeColor=none;fillColor=none;" vertex="1" parent="1">
          <mxGeometry x="170" y="364" width="80" height="20" as="geometry" />
        </mxCell>
        <mxCell id="Jinud9rGnBVDsygdzhPH-29" value="Arus Data (J)" style="text;html=1;align=center;verticalAlign=middle;resizable=0;points=[];autosize=1;strokeColor=none;fillColor=none;" vertex="1" parent="1">
          <mxGeometry x="165" y="385" width="90" height="20" as="geometry" />
        </mxCell>
        <mxCell id="Jinud9rGnBVDsygdzhPH-32" value="Arus Data (K)" style="text;html=1;align=center;verticalAlign=middle;resizable=0;points=[];autosize=1;strokeColor=none;fillColor=none;" vertex="1" parent="1">
          <mxGeometry x="447" y="364" width="90" height="20" as="geometry" />
        </mxCell>
        <mxCell id="Jinud9rGnBVDsygdzhPH-33" value="Arus Data (L)" style="text;html=1;align=center;verticalAlign=middle;resizable=0;points=[];autosize=1;strokeColor=none;fillColor=none;" vertex="1" parent="1">
          <mxGeometry x="448" y="385" width="90" height="20" as="geometry" />
        </mxCell>
        <mxCell id="Jinud9rGnBVDsygdzhPH-34" value="Penyimpanan&amp;nbsp; Data (E)" style="shape=partialRectangle;whiteSpace=wrap;html=1;left=0;right=0;fillColor=none;" vertex="1" parent="1">
          <mxGeometry x="310" y="209" width="120" height="60" as="geometry" />
        </mxCell>
        <mxCell id="Jinud9rGnBVDsygdzhPH-36" style="edgeStyle=orthogonalEdgeStyle;rounded=0;orthogonalLoop=1;jettySize=auto;html=1;entryX=0.5;entryY=1;entryDx=0;entryDy=0;" edge="1" parent="1">
          <mxGeometry relative="1" as="geometry">
            <mxPoint x="359.0000000000001" y="516" as="sourcePoint" />
            <mxPoint x="359.0000000000001" y="424" as="targetPoint" />
          </mxGeometry>
        </mxCell>
        <mxCell id="Jinud9rGnBVDsygdzhPH-40" style="edgeStyle=orthogonalEdgeStyle;rounded=0;orthogonalLoop=1;jettySize=auto;html=1;entryX=0.5;entryY=0;entryDx=0;entryDy=0;" edge="1" parent="1">
          <mxGeometry relative="1" as="geometry">
            <mxPoint x="359" y="576" as="sourcePoint" />
            <mxPoint x="359" y="659.9999999999999" as="targetPoint" />
          </mxGeometry>
        </mxCell>
        <mxCell id="Jinud9rGnBVDsygdzhPH-35" value="Penyimpanan&amp;nbsp; Data (M)" style="shape=partialRectangle;whiteSpace=wrap;html=1;left=0;right=0;fillColor=none;" vertex="1" parent="1">
          <mxGeometry x="310" y="516" width="120" height="60" as="geometry" />
        </mxCell>
        <mxCell id="Jinud9rGnBVDsygdzhPH-39" style="edgeStyle=orthogonalEdgeStyle;rounded=0;orthogonalLoop=1;jettySize=auto;html=1;entryX=0.5;entryY=1;entryDx=0;entryDy=0;" edge="1" parent="1">
          <mxGeometry relative="1" as="geometry">
            <mxPoint x="377" y="659.9999999999999" as="sourcePoint" />
            <mxPoint x="377" y="576" as="targetPoint" />
          </mxGeometry>
        </mxCell>
        <mxCell id="Jinud9rGnBVDsygdzhPH-38" value="Proses (N)" style="ellipse;whiteSpace=wrap;html=1;aspect=fixed;" vertex="1" parent="1">
          <mxGeometry x="330" y="660" width="80" height="80" as="geometry" />
        </mxCell>
      </root>
    </mxGraphModel>
  </diagram>
</mxfile>
